Coordinates
version=1
nRows=8
nColumns=63
inDegrees=yes

Units are S.I. units (second, meters, Newtons, ...)
If the header above contains a line with 'inDegrees', this indicates whether rotational values are in degrees (yes) or radians (no).

endheader
time	pelvis_tilt	pelvis_list	pelvis_rotation	pelvis_tx	pelvis_ty	pelvis_tz	hip_flexion_r	hip_adduction_r	hip_rotation_r	knee_angle_r	knee_angle_r_beta	ankle_angle_r	subtalar_angle_r	mtp_angle_r	hip_flexion_l	hip_adduction_l	hip_rotation_l	knee_angle_l	knee_angle_l_beta	ankle_angle_l	subtalar_angle_l	mtp_angle_l	L5_S1_Flex_Ext	L5_S1_Lat_Bending	L5_S1_axial_rotation	L4_L5_Flex_Ext	L4_L5_Lat_Bending	L4_L5_axial_rotation	L3_L4_Flex_Ext	L3_L4_Lat_Bending	L3_L4_axial_rotation	L2_L3_Flex_Ext	L2_L3_Lat_Bending	L2_L3_axial_rotation	L1_L2_Flex_Ext	L1_L2_Lat_Bending	L1_L2_axial_rotation	L1_T12_Flex_Ext	L1_T12_Lat_Bending	L1_T12_axial_rotation	Abs_r3	Abs_r2	Abs_r1	Abs_t1	Abs_t2	neck_flexion	neck_bending	neck_rotation	arm_flex_r	arm_add_r	arm_rot_r	elbow_flex_r	pro_sup_r	wrist_flex_r	wrist_dev_r	arm_flex_l	arm_add_l	arm_rot_l	elbow_flex_l	pro_sup_l	wrist_flex_l	wrist_dev_l
      1.61016949	     -6.24904593	     -4.22622908	     87.74090472	      0.21022757	      0.94349019	      0.41391335	     -3.65423731	     -2.62921758	     -5.67566342	      0.78532663	      0.01370654	     28.84634210	     13.86344368	      0.00000000	      2.43162670	      1.99073369	    -10.27692920	     11.17681700	      0.19507226	     26.18708333	      6.11630320	      0.00000000	      0.00886121	     -1.16721819	      0.84725049	      0.01645615	     -1.55240020	      0.90020364	      0.01455808	     -2.83797431	      0.90020364	      0.01012748	     -2.83797431	      0.74134418	      0.00822852	     -2.38019134	      0.68839102	      0.00506329	     -1.80802098	      0.63543787	      0.06329473	    -13.20380564	      4.71215304	      0.00000000	      0.00000000	     27.90355496	      6.42548974	    -20.45541801	     80.32302148	    -41.24578160	     17.20925981	    134.82741721	     75.61353176	     13.36924321	     23.82731475	      8.60639244	    -19.50990126	    130.85752620	      9.74883197	     10.27913579	     -8.70479051	     -6.01042464
      1.62711864	     -6.25879985	     -4.23914056	     87.73585484	      0.20991976	      0.94354776	      0.41423850	     -3.59798105	     -2.68189694	     -5.54819091	      0.82041592	      0.01431896	     28.79665136	     13.97124157	      0.00000000	      2.44376255	      2.03960497	    -10.17983749	     11.20860501	      0.19562706	     26.20172435	      6.08529364	      0.00000000	      0.00053972	     -1.16587357	      0.78594957	      0.00100231	     -1.55061185	      0.83507142	      0.00088670	     -2.83470501	      0.83507142	      0.00061684	     -2.83470501	      0.68770587	      0.00050118	     -2.37744939	      0.63858402	      0.00030839	     -1.80593817	      0.58946218	      0.00385514	    -13.18859504	      4.37121571	      0.00000000	      0.00000000	     27.95668333	      6.22261874	    -20.12099805	     80.21661726	    -41.85003742	     17.01973484	    135.68331272	     75.39386162	     13.39064733	     23.42262943	      8.73590824	    -19.37359947	    131.17165230	      9.52727708	     10.54646370	     -8.87975766	     -6.09071302
      1.64406780	     -6.14565835	     -4.51978879	     88.36725118	      0.20849156	      0.94337198	      0.41429654	     -3.37396183	     -2.54150562	     -6.44789850	      0.81642935	      0.01424938	     28.81047186	     14.08500527	      0.00000000	      2.83110231	      2.17083466	     -7.48001095	     11.30241007	      0.19726427	     25.90812285	      3.45877678	      0.00000000	      0.02382223	     -1.15590971	      0.79372459	      0.04424027	     -1.53735992	      0.84333237	      0.03913755	     -2.81047887	      0.84333237	      0.02722643	     -2.81047887	      0.69450901	      0.02212133	     -2.35713108	      0.64490123	      0.01361202	     -1.79050414	      0.59529344	      0.17015983	    -13.07588183	      4.41445804	      0.00000000	      0.00000000	     27.97141824	      5.90016686	    -21.00589649	     79.64773453	    -44.40636992	     17.00817987	    136.94626390	     73.89438164	     10.95976267	     20.55131091	      9.79176601	    -18.69516477	    139.80697115	      8.77702731	     12.10299567	    -10.17819768	     -5.93330865
      1.66101695	     -6.08092717	     -4.65221565	     88.65283733	      0.20785516	      0.94339347	      0.41457430	     -3.23574964	     -2.47428895	     -6.71772176	      0.83881025	      0.01464000	     28.75273238	     14.05041468	      0.00000000	      3.05350420	      2.10703122	     -7.38884107	     11.42698717	      0.19943855	     26.15389134	      3.76801041	      0.00000000	      0.03170983	     -1.14878400	      0.76388394	      0.05888832	     -1.52788272	      0.81162669	      0.05209608	     -2.79315341	      0.81162669	      0.03624116	     -2.79315341	      0.66839845	      0.02944575	     -2.34260033	      0.62065570	      0.01811900	     -1.77946641	      0.57291296	      0.22650014	    -12.99527435	      4.24849332	      0.00000000	      0.00000000	     27.98849861	      5.77371008	    -21.26447646	     79.33489075	    -45.43976744	     16.04819418	    137.84982647	     71.73170320	     13.44553010	     20.88743821	     10.27998396	    -18.29660551	    144.57731502	      8.25572744	     12.69820037	    -10.97275629	     -5.77232470
      1.67796610	     -6.06107151	     -4.74990374	     89.04901404	      0.20722163	      0.94348071	      0.41483003	     -3.15588180	     -2.44061867	     -7.04338521	      0.84622102	      0.01476934	     28.71200734	     13.94669644	      0.00000000	      3.24676010	      2.10662806	     -7.06573260	     11.52573206	      0.20116197	     26.35058340	      3.82419216	      0.00000000	      0.03478245	     -1.14596836	      0.70781945	      0.06459449	     -1.52413791	      0.75205816	      0.05714409	     -2.78630746	      0.75205816	      0.03975286	     -2.78630746	      0.61934202	      0.03229898	     -2.33685867	      0.57510330	      0.01987469	     -1.77510498	      0.53086458	      0.24844757	    -12.96342324	      3.93667941	      0.00000000	      0.00000000	     27.99506057	      5.60591727	    -21.49441655	     78.87211750	    -46.32941688	     15.13716058	    138.97125132	     70.44454698	     14.58363538	     21.56746917	     10.59099785	    -18.06931414	    147.08709636	      7.91540032	     14.19139355	    -11.71404843	     -5.53412764
      1.69491525	     -6.07349329	     -4.82071539	     89.27453849	      0.20685264	      0.94359105	      0.41500319	     -3.08380712	     -2.45185335	     -7.25739454	      0.86843578	      0.01515706	     28.65779792	     13.96170172	      0.00000000	      3.40052023	      2.14611711	     -6.84586574	     11.61807647	      0.20277369	     26.48622968	      3.71520859	      0.00000000	      0.04103743	     -1.14835277	      0.67379697	      0.07621062	     -1.52730918	      0.71590928	      0.06742040	     -2.79210493	      0.71590928	      0.04690168	     -2.79210493	      0.58957235	      0.03810736	     -2.34172097	      0.54746004	      0.02344879	     -1.77879844	      0.50534773	      0.29312627	    -12.99039621	      3.74745662	      0.00000000	      0.00000000	     28.00146412	      5.54223249	    -21.71620152	     78.45554899	    -46.83906696	     13.87463637	    139.95893407	     68.41118460	     16.69103405	     23.11617576	     10.76587744	    -17.99255811	    148.39931520	      7.81152131	     14.39590967	    -11.92580451	     -5.41087144
      1.71186441	     -6.10993265	     -4.78130886	     89.31134288	      0.20669369	      0.94363914	      0.41513312	     -3.11240618	     -2.49936095	     -7.27195397	      0.87704293	      0.01530729	     28.71133368	     13.94442963	      0.00000000	      3.37564774	      2.20839180	     -6.86402697	     11.61255495	      0.20267732	     26.55020780	      3.67629688	      0.00000000	      0.03457738	     -1.14564270	      0.65111979	      0.06421365	     -1.52370479	      0.69181477	      0.05680718	     -2.78551565	      0.69181477	      0.03951849	     -2.78551565	      0.56972981	      0.03210856	     -2.33619459	      0.52903483	      0.01975751	     -1.77460054	      0.48833984	      0.24698277	    -12.95973931	      3.62133292	      0.00000000	      0.00000000	     28.01350669	      5.42796535	    -21.40673883	     78.65126892	    -47.24807223	     13.46153342	    140.71389827	     68.15918263	     16.98632349	     23.19304334	     10.69572251	    -17.97713881	    148.31140061	      7.72560398	     14.21621708	    -11.93700339	     -5.39968446
      1.72881356	     -6.12497435	     -4.74305460	     89.24274069	      0.20682540	      0.94371535	      0.41491282	     -3.14695020	     -2.51400643	     -7.27568914	      0.89654951	      0.01564774	     28.69041198	     13.94324248	      0.00000000	      3.33832149	      2.22159749	     -6.87564439	     11.62267944	      0.20285402	     26.59024044	      3.65845578	      0.00000000	      0.04105644	     -1.14560185	      0.63449887	      0.07624592	     -1.52365046	      0.67415505	      0.06745163	     -2.78541633	      0.67415505	      0.04692341	     -2.78541633	      0.55518651	      0.03812501	     -2.33611128	      0.51553033	      0.02345965	     -1.77453726	      0.47587415	      0.29326206	    -12.95927721	      3.52889237	      0.00000000	      0.00000000	     27.96918739	      5.43787828	    -21.37295280	     78.98355259	    -47.22808800	     13.17371375	    141.10662860	     68.08512751	     17.00645525	     23.12562659	     10.55984340	    -18.04358030	    148.29989742	      7.80921283	     14.18513074	    -11.91085401	     -5.38225515
